<?xml version="1.0" encoding="UTF-8"?>
<svg version="1.1" xmlns="http://www.w3.org/2000/svg" width="256" height="256">
<path d="M0 0 C84.48 0 168.96 0 256 0 C256 84.48 256 168.96 256 256 C171.52 256 87.04 256 0 256 C0 171.52 0 87.04 0 0 Z " fill="#C79A30" transform="translate(0,0)"/>
<path d="M0 0 C0.4021875 1.54107422 0.4021875 1.54107422 0.8125 3.11328125 C3.49749123 12.8170367 6.70628678 22.60273679 15.359375 28.6484375 C18.26356426 30.13490123 21.17253292 31.23092643 24.25 32.3125 C30.15580928 34.5512601 35.03729784 37.10646168 40 41 C40.81082031 41.63550781 41.62164062 42.27101562 42.45703125 42.92578125 C60.1801474 57.81755473 70.00438767 81.25710447 72 104 C73.80815415 136.75235298 67.54610441 164.02710083 45.68212891 189.15869141 C29.49420638 207.0706462 4.02073795 222.80289273 -20.67211914 224.14526367 C-23.80235426 224.17008774 -26.93215914 224.18565971 -30.0625 224.1875 C-31.13177734 224.19974609 -32.20105469 224.21199219 -33.30273438 224.22460938 C-44.0647171 224.2441175 -53.89656791 222.70459177 -64 219 C-63.98259766 218.05640625 -63.98259766 218.05640625 -63.96484375 217.09375 C-63.95582031 216.2378125 -63.94679688 215.381875 -63.9375 214.5 C-63.92009766 213.24703125 -63.92009766 213.24703125 -63.90234375 211.96875 C-64.02427905 208.26191676 -64.50134869 204.67509943 -65 201 C-64.13217896 200.51756836 -64.13217896 200.51756836 -63.24682617 200.02539062 C-47.55891821 191.37749302 -47.55891821 191.37749302 -33 181 C-32.22914062 180.3915625 -31.45828125 179.783125 -30.6640625 179.15625 C-16.50140851 167.36209446 -7.32334902 150.03087955 -5.25 131.6875 C-5.1675 130.470625 -5.085 129.25375 -5 128 C-4.34773438 127.90203125 -3.69546875 127.8040625 -3.0234375 127.703125 C2.46842245 126.76351474 6.8015554 125.8985557 11 122 C14.5568217 116.46469623 16.30824962 110.52967066 15 104 C13.1612612 99.22097382 10.64680496 96.00814548 6.125 93.5625 C2.43579535 91.97039077 -1.00875848 91.33260346 -5 91 C-5 90.01 -5 89.02 -5 88 C-3.58376784 87.94552953 -2.16691809 87.90699492 -0.75 87.875 C0.43335938 87.84019531 0.43335938 87.84019531 1.640625 87.8046875 C4.20731941 88.0171622 5.7916067 88.71345895 8 90 C7.70123405 87.11192917 7.2193272 86.17944953 4.9375 84.3125 C2.30368004 83.13568683 0.61898493 82.72490418 -2.18359375 82.41796875 C-3.44300781 82.28003906 -4.70242187 82.14210938 -6 82 C-6.68729917 52.94310588 -6.68729917 52.94310588 -1.8984375 43.92578125 C-0.3294795 40.56275388 -1.01420468 37.43033978 -2 34 C-5.06532194 27.26572349 -8.67866991 20.95229341 -14.25 16 C-16 14 -16 14 -16.5625 11.625 C-15.47632141 6.55616657 -11.85813574 3.69723529 -8 0.5625 C-4.55564767 -1.23143351 -3.61441771 -0.9341316 0 0 Z " fill="#F6CE42" transform="translate(134,16)"/>
<path d="M0 0 C3.97024619 2.14393294 5.48814367 3.57425459 7.01953125 7.83984375 C7.64514717 10.07875008 8.26333851 12.3197412 8.875 14.5625 C10.86551489 20.64462884 14.03862876 26.8924908 19.34375 30.66796875 C22.19783279 32.09920733 25.04314378 33.15111626 28.0625 34.1875 C47.88412729 41.70450538 60.42404665 57.02385076 69.3125 75.625 C71.94196051 81.64660984 74.23674686 87.66796204 76 94 C76.45052734 95.59328125 76.45052734 95.59328125 76.91015625 97.21875 C79.10758877 106.62171704 79.31834436 116.00427085 79.375 125.625 C79.38885742 126.92284424 79.40271484 128.22068848 79.41699219 129.55786133 C79.36031665 141.33667806 77.30255323 152.44365335 73.25 163.5 C72.99323486 164.20793701 72.73646973 164.91587402 72.47192383 165.64526367 C68.00819118 177.62686182 62.15119701 188.09719213 54 198 C52.93458984 199.29550781 52.93458984 199.29550781 51.84765625 200.6171875 C34.81801156 220.38758875 9.13985566 235.54875809 -17.0703125 238.75 C-32.3047457 239.71918859 -47.54475675 240.60209554 -62 235 C-62.98355469 234.63777344 -63.96710938 234.27554688 -64.98046875 233.90234375 C-69.23354333 232.09187189 -72.26537183 230.37040727 -74.625 226.3125 C-76.95303951 220.44805761 -77.12404696 214.60574523 -74.625 208.8125 C-67.93945116 201.64941195 -59.22684215 197.44868448 -50.70703125 192.85498047 C-44.14246009 189.24253232 -38.54909438 185.06018739 -33 180 C-33.763125 179.401875 -34.52625 178.80375 -35.3125 178.1875 C-38 176 -38 176 -39.32275391 174.38427734 C-41.71867047 172.40686149 -43.44874103 172.64656138 -46.5234375 172.6640625 C-47.62163818 172.65455566 -48.71983887 172.64504883 -49.85131836 172.63525391 C-51.59554077 172.63017822 -51.59554077 172.63017822 -53.375 172.625 C-73.82755633 172.22998453 -73.82755633 172.22998453 -81.81640625 165.4609375 C-83 164 -83 164 -83 162 C-82.01 162 -81.02 162 -80 162 C-79.67 160.68 -79.34 159.36 -79 158 C-78.731875 158.639375 -78.46375 159.27875 -78.1875 159.9375 C-77.11332248 162.33131686 -77.11332248 162.33131686 -74 163 C-72.60560336 163.06665376 -71.20830125 163.08538199 -69.8125 163.0625 C-67.9253125 163.0315625 -67.9253125 163.0315625 -66 163 C-65.67 162.01 -65.34 161.02 -65 160 C-68.96 158.68 -72.92 157.36 -77 156 C-77 155.34 -77 154.68 -77 154 C-72.05 154.33 -67.1 154.66 -62 155 C-61.67 154.01 -61.34 153.02 -61 152 C-61.928125 151.8453125 -61.928125 151.8453125 -62.875 151.6875 C-65 151 -65 151 -67 148 C-64.36 148 -61.72 148 -59 148 C-58.67 147.01 -58.34 146.02 -58 145 C-57.34 145 -56.68 145 -56 145 C-56.08768248 146.5843317 -56.19587329 148.16753567 -56.3125 149.75 C-56.39951172 151.07257813 -56.39951172 151.07257813 -56.48828125 152.421875 C-57.07097502 155.35758409 -58.12711045 156.71038055 -60 159 C-60.71408334 160.98356483 -61.38617742 162.98315437 -62 165 C-62.33 165.66 -62.66 166.32 -63 167 C-61.58249437 166.88490339 -60.16598831 166.75746342 -58.75 166.625 C-57.56664063 166.52058594 -57.56664063 166.52058594 -56.359375 166.4140625 C-53.90462303 165.98326166 -52.20534899 165.12090052 -50 164 C-49.01 164 -48.02 164 -47 164 C-47 165.32 -47 166.64 -47 168 C-43.32975239 166.77658413 -42.6393158 165.16485941 -40.8515625 161.85546875 C-39.81881281 159.60521141 -39.29747995 157.45420959 -39 155 C-39.66 155 -40.32 155 -41 155 C-41 155.99 -41 156.98 -41 158 C-41.99 158 -42.98 158 -44 158 C-43.85820313 157.05640625 -43.71640625 156.1128125 -43.5703125 155.140625 C-42.57020528 146.4028461 -43.04996479 141.82563698 -47.62890625 134.07421875 C-50.07687144 128.58547628 -49.46998418 122.88350572 -49 117 C-52.62793998 118.86566488 -52.62793998 118.86566488 -55 122 C-55.07116382 124.37402501 -55.08409085 126.75000677 -55.0625 129.125 C-55.05347656 130.40632812 -55.04445312 131.68765625 -55.03515625 133.0078125 C-55.02355469 133.99523437 -55.01195312 134.98265625 -55 136 C-59.28457657 135.41402056 -62.95599995 134.37889236 -66.95703125 132.75 C-68.07013672 132.3065625 -69.18324219 131.863125 -70.33007812 131.40625 C-72.64162055 130.47281728 -74.95153804 129.53534992 -77.25976562 128.59375 C-83.62306766 126.06752276 -89.14853167 124.34949041 -96 124 C-95.56560446 126.45529373 -95.56560446 126.45529373 -94 129 C-91.34104591 130.33390372 -88.980539 131.32479029 -86.1875 132.25 C-85.47529297 132.50523437 -84.76308594 132.76046875 -84.02929688 133.0234375 C-80.38581735 134.30421661 -76.82112092 135.36940244 -73 136 C-74.63828753 137.72020191 -76.09247879 139.05711925 -78.125 140.3125 C-80.701036 142.6309324 -80.70092534 144.63541004 -81 148 C-81.66 147.67 -82.32 147.34 -83 147 C-82.67 144.36 -82.34 141.72 -82 139 C-82.71285156 138.82984375 -83.42570312 138.6596875 -84.16015625 138.484375 C-90.04307818 136.99582948 -94.95364836 135.40080219 -100 132 C-101.61154539 128.77690922 -101.58553263 125.48564129 -101 122 C-98.9478045 119.35200581 -97.4758456 118.23871706 -94.12988281 117.69750977 C-87.23277395 117.47371212 -81.91890718 119.66845257 -75.6875 122.4375 C-73.75481248 123.27163414 -71.82125204 124.10374934 -69.88671875 124.93359375 C-68.62154419 125.4913147 -68.62154419 125.4913147 -67.33081055 126.06030273 C-65.22632221 126.90875519 -63.21283783 127.51573251 -61 128 C-61.0825 126.80375 -61.165 125.6075 -61.25 124.375 C-61.25 118.97101872 -58.87237666 115.93694137 -55.1875 112.125 C-52.0282996 110.50026837 -49.49097381 110.67676168 -46 111 C-43.13576358 113.86423642 -43.76406897 116.00229357 -43.6875 120 C-43.45120694 126.04809693 -42.25396893 130.29547697 -39.203125 135.51171875 C-37.34072674 139.36349696 -36.95150705 143.31462119 -36.45703125 147.53125 C-36.21007715 150.16763986 -36.21007715 150.16763986 -34 152 C-33.8046875 154.1640625 -33.8046875 154.1640625 -33.875 156.625 C-33.89304687 157.44226563 -33.91109375 158.25953125 -33.9296875 159.1015625 C-33.95289062 159.72804687 -33.97609375 160.35453125 -34 161 C-33.319375 161.268125 -32.63875 161.53625 -31.9375 161.8125 C-28.60294866 163.16051012 -25.30428001 164.57943203 -22 166 C-22.11730503 159.75188831 -22.24214069 153.50396027 -22.37231445 147.25610352 C-22.41573423 145.12885993 -22.45740393 143.0015799 -22.49731445 140.87426758 C-22.55484707 137.82361849 -22.61858967 134.77315411 -22.68359375 131.72265625 C-22.70030624 130.76537125 -22.71701874 129.80808624 -22.73423767 128.8217926 C-22.7641555 127.50053627 -22.7641555 127.50053627 -22.79467773 126.15258789 C-22.81799416 124.9834359 -22.81799416 124.9834359 -22.84178162 123.79066467 C-22.80889119 121.97706647 -22.80889119 121.97706647 -24 121 C-24.04080783 119.00041636 -24.04254356 116.99954746 -24 115 C-22.68 114.67 -21.36 114.34 -20 114 C-20.33 115.65 -20.66 117.3 -21 119 C-20.34 119.33 -19.68 119.66 -19 120 C-18.505 118.02 -18.505 118.02 -18 116 C-17.82984375 116.59167969 -17.6596875 117.18335937 -17.484375 117.79296875 C-15.82959376 123.18861183 -14.27427073 128.0340383 -9.171875 131.09765625 C-5.16928163 132.76060421 -1.23490616 132.7481017 3 132 C6.73462014 129.95858972 9.15952709 127.26070936 11.5 123.75 C12.50443556 118.2256044 12.12601535 112.96010079 9.3125 108.0625 C4.89409079 104.12175665 0.83702214 102.40140365 -5.046875 102.6484375 C-10.65166388 103.6572995 -13.69876043 107.75554913 -17 112 C-17.66 112 -18.32 112 -19 112 C-18.62921495 108.75563083 -18.23429569 107.25472482 -15.98681641 104.8112793 C-13.47847666 101.26206178 -13.4311006 98.39625765 -13.4609375 94.20703125 C-13.44914459 93.46096115 -13.43735168 92.71489105 -13.42520142 91.94621277 C-13.39004361 89.56809616 -13.38079204 87.1908546 -13.375 84.8125 C-13.21795397 62.30641809 -13.21795397 62.30641809 -9.3125 52.75 C-7.87518641 48.64338975 -7.96501114 47.13475451 -9 43 C-11.81623194 37.4073134 -15.21794482 32.4986032 -19.9375 28.375 C-22.70336342 25.78938386 -23.49362217 24.17870094 -23.625 20.375 C-22.91755678 12.60622542 -17.62349411 7.94867481 -12 3 C-7.91580627 0.38611601 -4.84424373 -0.80737396 0 0 Z M-9.625 10.3125 C-10.40101562 10.92738281 -11.17703125 11.54226562 -11.9765625 12.17578125 C-14.1944552 14.02457933 -14.1944552 14.02457933 -16 17 C-16.07216639 20.49721894 -16.07216639 20.49721894 -15 24 C-13.35648543 25.36176922 -11.68477344 26.68962066 -10 28 C-7.7517324 31.20054134 -5.85786437 34.56108772 -4 38 C-3.64292969 38.64710937 -3.28585938 39.29421875 -2.91796875 39.9609375 C0.4429385 46.74413843 -2.14760929 52.8936595 -4.28125 59.66796875 C-5.5560844 63.80425209 -6.12084069 67.28194946 -6.09765625 71.640625 C-6.09443359 72.71054688 -6.09121094 73.78046875 -6.08789062 74.8828125 C-6.07951172 75.99398437 -6.07113281 77.10515625 -6.0625 78.25 C-6.05798828 79.37664062 -6.05347656 80.50328125 -6.04882812 81.6640625 C-6.03705397 84.44276217 -6.0206084 87.22135409 -6 90 C-4.96286865 90.18175781 -4.96286865 90.18175781 -3.90478516 90.3671875 C-3.00034668 90.53476563 -2.0959082 90.70234375 -1.1640625 90.875 C-0.2663916 91.03742188 0.6312793 91.19984375 1.55615234 91.3671875 C4.66045494 92.1710189 6.18859832 93.36523392 8 96 C8 96.66 8 97.32 8 98 C7.43796875 97.67257813 6.8759375 97.34515625 6.296875 97.0078125 C3.73140036 95.88214506 2.03157723 95.7931889 -0.75 95.875 C-1.54921875 95.89304687 -2.3484375 95.91109375 -3.171875 95.9296875 C-3.77515625 95.95289062 -4.3784375 95.97609375 -5 96 C-5 96.99 -5 97.98 -5 99 C-4.33613281 99.10957031 -3.67226562 99.21914062 -2.98828125 99.33203125 C3.94706369 100.57735596 8.57779118 101.69640765 12.8125 107.625 C15.90585541 112.97963737 15.91861154 117.50242934 14.37109375 123.39453125 C12.45633011 128.57212082 10.01648341 131.48675437 5.171875 134.13671875 C1.75896024 135.49329098 -1.34035617 135.80394765 -5 136 C-5.07476562 136.83660156 -5.14953125 137.67320312 -5.2265625 138.53515625 C-7.41701159 157.92707317 -16.48861178 175.55831276 -31.52685547 188.29296875 C-40.37762365 195.34105367 -50.26575745 200.7222288 -60.22924805 206.01367188 C-61.86825301 206.92661549 -63.43897889 207.95931926 -65 209 C-64.89171875 210.57201172 -64.89171875 210.57201172 -64.78125 212.17578125 C-64.6874471 213.5546839 -64.59370001 214.93359035 -64.5 216.3125 C-64.45230469 217.00279297 -64.40460938 217.69308594 -64.35546875 218.40429688 C-64.16120511 221.27662359 -64 224.12013788 -64 227 C-62.00283825 227.65455759 -60.00209613 228.2981943 -58 228.9375 C-56.88625 229.29714844 -55.7725 229.65679687 -54.625 230.02734375 C-38.34416249 234.39580123 -18.76941054 233.77021339 -3 228 C-1.33130859 227.42185547 -1.33130859 227.42185547 0.37109375 226.83203125 C3.62779684 225.64672942 6.8129307 224.36072606 10 223 C10.96164063 222.59394531 11.92328125 222.18789062 12.9140625 221.76953125 C38.08570968 210.20142925 57.30322801 187.57604198 66.875 161.8125 C70.85866376 150.31889232 72.51060723 139.39152359 72.375 127.25 C72.36484863 125.93104736 72.35469727 124.61209473 72.34423828 123.25317383 C71.92932958 97.11553352 64.43437493 72.49451705 45.75390625 53.58984375 C38.36619875 46.64225499 29.63823672 41.16484784 19.80859375 38.37890625 C13.07475035 36.46812877 9.67478742 31.76180478 6 26 C4.36710789 22.74414218 3.13101659 19.45861596 2 16 C1.55333984 14.69869141 1.55333984 14.69869141 1.09765625 13.37109375 C0.37842325 11.253168 -0.32056428 9.13095749 -1 7 C-5.5204994 7 -6.24297109 7.58086126 -9.625 10.3125 Z " fill="#5A3B13" transform="translate(134,8)"/>
<path d="M0 0 C0.4021875 1.54107422 0.4021875 1.54107422 0.8125 3.11328125 C3.49749123 12.8170367 6.70628678 22.60273679 15.359375 28.6484375 C18.26356426 30.13490123 21.17253292 31.23092643 24.25 32.3125 C30.15580928 34.5512601 35.03729784 37.10646168 40 41 C40.81082031 41.63550781 41.62164062 42.27101562 42.45703125 42.92578125 C60.1801474 57.81755473 70.00438767 81.25710447 72 104 C73.80815415 136.75235298 67.54610441 164.02710083 45.68212891 189.15869141 C29.49420638 207.0706462 4.02073795 222.80289273 -20.67211914 224.14526367 C-23.80235426 224.17008774 -26.93215914 224.18565971 -30.0625 224.1875 C-31.13177734 224.19974609 -32.20105469 224.21199219 -33.30273438 224.22460938 C-44.0647171 224.2441175 -53.89656791 222.70459177 -64 219 C-64 214.38 -64 209.76 -64 205 C-62 208 -62 208 -62 212 C-47.54510306 211.80806227 -33.80000024 211.62081456 -20 207 C-18.90171875 206.6390625 -17.8034375 206.278125 -16.671875 205.90625 C-3.98402872 201.37049819 8.00894818 195.10295832 18 186 C18.97710937 185.11570313 19.95421875 184.23140625 20.9609375 183.3203125 C36.84462041 168.46025029 49.17796052 146.47287202 50.1081543 124.43798828 C50.7045742 96.07761311 47.43133154 66.90511037 26.86328125 45.44140625 C24.16992785 43.14489073 21.53639583 41.43720001 18.5065918 39.6496582 C7.93619032 33.39874516 3.35363917 24.84084106 -2 14 C-5.96 14.99 -9.92 15.98 -14 17 C-16.20009864 13.69985205 -16.62319003 12.8281673 -16 9 C-11.93005946 3.13449745 -7.55197965 -1.95177853 0 0 Z " fill="#CC9926" transform="translate(134,16)"/>
<path d="M0 0 C1.66918945 1.19067383 1.66918945 1.19067383 3 3 C3.34057617 5.4519043 3.34057617 5.4519043 3.29296875 8.32421875 C3.28330078 9.35224609 3.27363281 10.38027344 3.26367188 11.43945312 C3.23853516 12.51130859 3.21339844 13.58316406 3.1875 14.6875 C3.16719727 16.31268555 3.16719727 16.31268555 3.14648438 17.97070312 C3.11110643 20.64763405 3.06174189 23.32356838 3 26 C4.05316406 25.83628906 5.10632813 25.67257813 6.19140625 25.50390625 C9.1865007 25.10763221 11.93094289 24.89124528 14.9375 24.9375 C15.70964844 24.94652344 16.48179688 24.95554688 17.27734375 24.96484375 C17.84582031 24.97644531 18.41429688 24.98804688 19 25 C19 25.99 19 26.98 19 28 C18.236875 28.061875 17.47375 28.12375 16.6875 28.1875 C13.88268269 28.79084616 13.88268269 28.79084616 12.125 31 C10.55208427 35.19444195 11.21593554 38.66402907 12 43 C13.14275391 43.09474609 13.14275391 43.09474609 14.30859375 43.19140625 C27.24903813 44.72616557 33.48996599 52.1616133 41.77685547 61.49291992 C45.79474242 65.96141642 50.07344419 69.56203229 55 73 C54.68485629 75.91507929 54.45718832 77.54567027 52.34295654 79.64668274 C49.31013027 81.39847628 47.25722855 81.36154337 43.76269531 81.34057617 C42.50169006 81.34034958 41.24068481 81.34012299 39.94146729 81.33988953 C38.57034956 81.32457082 37.19923548 81.30892285 35.828125 81.29296875 C34.42137098 81.28737086 33.01461109 81.28310167 31.60784912 81.28010559 C27.91204576 81.26867185 24.21659821 81.2392178 20.52093506 81.20599365 C16.74707858 81.17526077 12.9731644 81.16159341 9.19921875 81.14648438 C1.79931727 81.11434629 -5.60029144 81.06316824 -13 81 C-13.09279208 71.71605764 -13.16381144 62.43227558 -13.20724869 53.1479702 C-13.22809934 48.83659834 -13.25637042 44.52554438 -13.30175781 40.21435547 C-13.34530627 36.0516613 -13.36915608 31.88927239 -13.37950897 27.72636795 C-13.38688426 26.1403587 -13.4012867 24.55436564 -13.42292023 22.96848679 C-13.4520753 20.74213671 -13.45595117 18.51703845 -13.45410156 16.29052734 C-13.46298401 15.02477875 -13.47186646 13.75903015 -13.48101807 12.45492554 C-12.91216514 8.36912373 -11.50035112 6.23430219 -9 3 C-8.319375 2.071875 -8.319375 2.071875 -7.625 1.125 C-5.05284719 -0.65572117 -3.03103843 -0.3788798 0 0 Z " fill="#B78928" transform="translate(13,175)"/>
<path d="M0 0 C18.81 0 37.62 0 57 0 C57.04010881 18.42776962 57.04010881 18.42776962 57.04882812 26.25585938 C57.05481629 31.60669948 57.06191588 36.95752255 57.07543945 42.30834961 C57.08626929 46.62011973 57.09227704 50.93187159 57.09487724 55.24365425 C57.09673132 56.89236298 57.1003516 58.54107066 57.10573006 60.18977165 C57.11294178 62.49103872 57.11399089 64.7922294 57.11352539 67.09350586 C57.115746 68.4058873 57.11796661 69.71826874 57.12025452 71.07041931 C57 74 57 74 56 75 C53.8125 75.375 53.8125 75.375 51 75 C46.3109922 71.59443336 43.32892525 68.03001602 40.3125 63.125 C39.93544922 62.53847656 39.55839844 61.95195313 39.16992188 61.34765625 C36.66646215 57.37183016 34.75514504 53.3572172 33 49 C32.443125 49.825 31.88625 50.65 31.3125 51.5 C29 54 29 54 26.25 54.3125 C25.5075 54.209375 24.765 54.10625 24 54 C20.04753665 47.22434854 20.74497208 41.54668107 22 34 C23.07599952 30.52035639 24.38401033 27.26204426 26 24 C24.845 23.938125 23.69 23.87625 22.5 23.8125 C15.20699 22.8718821 9.83922449 18.59042936 5.3203125 12.97265625 C2.82359598 9.24235494 0 4.58629816 0 0 Z " fill="#BF922F" transform="translate(199,0)"/>
<path d="M0 0 C0.87527344 0.07863281 1.75054687 0.15726563 2.65234375 0.23828125 C5.0625 0.6875 5.0625 0.6875 8.0625 2.6875 C8.34856944 5.67785306 8.44048899 8.46015438 8.40307617 11.45166016 C8.40373329 12.81272133 8.40373329 12.81272133 8.40440369 14.20127869 C8.40230839 17.20992314 8.37894244 20.21801502 8.35546875 23.2265625 C8.34987543 25.30878393 8.34560409 27.3910093 8.34260559 29.47323608 C8.33113603 34.96096647 8.30165067 40.44845969 8.26849365 45.93609619 C8.23783823 51.53288565 8.22410995 57.12971333 8.20898438 62.7265625 C8.17678297 73.71366278 8.1239978 84.70052459 8.0625 95.6875 C-0.1875 95.6875 -8.4375 95.6875 -16.9375 95.6875 C-14.68592767 85.55542453 -14.68592767 85.55542453 -11.8125 82.1875 C-11.19761719 81.45015625 -10.58273438 80.7128125 -9.94921875 79.953125 C-7.21674181 76.87577234 -4.45956546 73.82289361 -1.63671875 70.828125 C1.33873086 67.0797425 2.33629661 63.25999352 2.875 58.5625 C2.98457031 57.71429688 3.09414062 56.86609375 3.20703125 55.9921875 C3.28296543 53.59532205 3.28296543 53.59532205 1.57421875 51.8828125 C1.07535156 51.48835938 0.57648438 51.09390625 0.0625 50.6875 C-6.64398808 52.5165422 -10.77315714 58.20708537 -14.9375 63.4375 C-17.95239666 66.99764393 -20.43706832 68.40166238 -24.9375 69.6875 C-28.375 69.375 -28.375 69.375 -30.9375 68.6875 C-30.8125 66.4375 -30.8125 66.4375 -29.9375 63.6875 C-28.5182228 62.7633195 -27.09344479 61.8456089 -25.6328125 60.98828125 C-21.47674199 57.79940688 -18.57200524 52.59101571 -16.9375 47.6875 C-11.39070109 41.5243901 -7.08427796 39.20475574 1.0625 38.6875 C2.40598361 38.97722516 3.74393148 39.29985848 5.0625 39.6875 C5.0625 29.74372918 -0.04862294 21.11267251 -5.09570312 12.77392578 C-7.15526378 9.37058324 -7.94450015 7.90450468 -7.8125 3.8125 C-7.52375 2.78125 -7.235 1.75 -6.9375 0.6875 C-4.37082316 -0.59583842 -2.84150742 -0.27956094 0 0 Z " fill="#AE7F24" transform="translate(247.9375,160.3125)"/>
<path d="M0 0 C0.00386719 1.30710937 0.00386719 1.30710937 0.0078125 2.640625 C0.27276804 10.8012556 1.7598737 16.26847636 5.69140625 23.38671875 C8.66881824 29.33265493 6.69772475 34.95185556 5 41 C5.99 41 6.98 41 8 41 C8 40.01 8 39.02 8 38 C8.66 38 9.32 38 10 38 C9.56857074 43.39286575 8.47889394 46.80486318 5 51 C4.01 51 3.02 51 2 51 C2 49.68 2 48.36 2 47 C1.030625 47.495 0.06125 47.99 -0.9375 48.5 C-5.28728381 50.39857367 -9.33030204 50.28589988 -14 50 C-13.54738642 48.56068883 -13.08767021 47.12361001 -12.625 45.6875 C-12.24214844 44.48673828 -12.24214844 44.48673828 -11.8515625 43.26171875 C-11 41 -11 41 -9 38 C-8.56261304 36.28555111 -8.19151312 34.55332216 -7.875 32.8125 C-7.70742187 31.91144531 -7.53984375 31.01039063 -7.3671875 30.08203125 C-7.18542969 29.05142578 -7.18542969 29.05142578 -7 28 C-7.41894531 28.48082031 -7.83789062 28.96164063 -8.26953125 29.45703125 C-10.88218064 31.78659448 -13.60471479 31.67969007 -17 32 C-15.35 32.99 -13.7 33.98 -12 35 C-12.33 36.32 -12.66 37.64 -13 39 C-18.0302076 38.47462276 -23.01885239 37.89405214 -28 37 C-28 37.66 -28 38.32 -28 39 C-26.96939453 39.18175781 -26.96939453 39.18175781 -25.91796875 39.3671875 C-25.01691406 39.53476563 -24.11585937 39.70234375 -23.1875 39.875 C-21.84751953 40.11863281 -21.84751953 40.11863281 -20.48046875 40.3671875 C-18 41 -18 41 -15 43 C-15.66 44.32 -16.32 45.64 -17 47 C-25.81415929 47.29380531 -25.81415929 47.29380531 -29 45 C-29.33 44.34 -29.66 43.68 -30 43 C-30.33 43.66 -30.66 44.32 -31 45 C-32.32 45 -33.64 45 -35 45 C-35 40.38 -35 35.76 -35 31 C-34.01 31 -33.02 31 -32 31 C-32.103125 30.0925 -32.20625 29.185 -32.3125 28.25 C-32 25 -32 25 -29.625 22.6875 C-27 21 -27 21 -25 20 C-25.89307861 19.69763428 -25.89307861 19.69763428 -26.80419922 19.38916016 C-29.49656907 18.47382801 -32.18577718 17.54953499 -34.875 16.625 C-35.81214844 16.30789062 -36.74929687 15.99078125 -37.71484375 15.6640625 C-38.61074219 15.3546875 -39.50664063 15.0453125 -40.4296875 14.7265625 C-41.67081299 14.30238037 -41.67081299 14.30238037 -42.93701172 13.86962891 C-45 13 -45 13 -47 11 C-47 9.68 -47 8.36 -47 7 C-38.30289132 6.18022919 -31.60293418 9.11819033 -23.6875 12.4375 C-21.19332838 13.46178415 -18.69611253 14.47844658 -16.19921875 15.49609375 C-14.55699341 16.17949829 -14.55699341 16.17949829 -12.8815918 16.87670898 C-10.57734344 17.7749422 -8.41181542 18.48623402 -6 19 C-6.165 18.360625 -6.33 17.72125 -6.5 17.0625 C-7.3993607 11.55391569 -8.10562776 6.86812967 -5.1875 1.9375 C-3 0 -3 0 0 0 Z " fill="#604014" transform="translate(85,125)"/>
<path d="M0 0 C3.96693119 2.1071656 6.86242338 4.37798945 9.06640625 8.27734375 C10.20333608 12.95835827 10.48991721 16.90093313 9.06640625 21.52734375 C5.92555626 25.84601249 3.04640089 29.65493981 -2.40234375 30.79296875 C-8.04006865 31.03070414 -11.59884181 30.09605379 -15.93359375 26.27734375 C-19.50548975 22.50190221 -20.52155556 20.10003581 -20.55859375 14.90234375 C-20.39720115 9.42120262 -19.51236493 6.41273419 -15.63671875 2.546875 C-10.86491505 -1.01008876 -5.67772184 -2.12197685 0 0 Z " fill="#F9D75A" transform="translate(136.93359375,110.72265625)"/>
<path d="M0 0 C19.47 0 38.94 0 59 0 C57.68 2.31 56.36 4.62 55 7 C57.475 7.99 57.475 7.99 60 9 C59.34 9.33 58.68 9.66 58 10 C57.34 9.67 56.68 9.34 56 9 C50.83431705 8.26204529 47.98303223 9.83794024 43.828125 12.62109375 C41.68612704 14.23674606 39.85863481 16.06987924 38 18 C37.34 18 36.68 18 36 18 C36 17.34 36 16.68 36 16 C35.07058594 15.87882813 34.14117187 15.75765625 33.18359375 15.6328125 C16.30258449 13.34445879 16.30258449 13.34445879 12 9 C10.5200921 7.97049885 9.01842636 6.97179287 7.5 6 C4.57716878 4.12938802 2.49173311 2.49173311 0 0 Z " fill="#CEA438" transform="translate(78,0)"/>
<path d="M0 0 C0.02578125 0.9178125 0.0515625 1.835625 0.078125 2.78125 C0.26708253 10.81671558 0.26708253 10.81671558 3.0625 18.1875 C5.83430019 22.88135142 5.72127809 27.69404625 5 33 C3.5 36.1875 3.5 36.1875 2 38 C-0.90265983 37.68619894 -2.55291537 37.43052594 -4.6875 35.375 C-6 33 -6 33 -6.875 29.5 C-8.19398841 25.3964805 -9.39815744 24.26162207 -13 22 C-16.42036411 20.42527791 -19.066576 19.82078911 -22.8125 19.75 C-28.11208449 19.36628692 -32.63351916 17.92808799 -37.5625 16.0625 C-38.26544189 15.79727539 -38.96838379 15.53205078 -39.69262695 15.25878906 C-42.59860472 14.11584923 -44.76948121 13.23051879 -47 11 C-47 9.68 -47 8.36 -47 7 C-38.30289132 6.18022919 -31.60293418 9.11819033 -23.6875 12.4375 C-21.19332838 13.46178415 -18.69611253 14.47844658 -16.19921875 15.49609375 C-14.55699341 16.17949829 -14.55699341 16.17949829 -12.8815918 16.87670898 C-10.57734344 17.7749422 -8.41181542 18.48623402 -6 19 C-6.165 18.360625 -6.33 17.72125 -6.5 17.0625 C-7.3993607 11.55391569 -8.10562776 6.86812967 -5.1875 1.9375 C-3 0 -3 0 0 0 Z " fill="#F0C947" transform="translate(85,125)"/>
<path d="M0 0 C1.7161053 5.14831591 -0.14586191 10.03218864 -2 15 C-3.50006356 17.07981786 -5.14913785 18.77424078 -6.95703125 20.58984375 C-11.17118736 25.56141988 -14.00096259 31.58699342 -17.05786133 37.31762695 C-17.9585258 38.9259397 -18.97750435 40.46625653 -20 42 C-22.4375 41.625 -22.4375 41.625 -25 41 C-27.98731982 35.02536035 -25.86764811 26.89023463 -24.0546875 20.8125 C-22.22202877 15.92541006 -19.75411557 11.42523257 -17 7 C-16.59136719 6.27167969 -16.18273437 5.54335937 -15.76171875 4.79296875 C-13.12434472 2.10881203 -10.46183103 1.91960202 -6.8125 1.25 C-4.90404297 0.88648438 -4.90404297 0.88648438 -2.95703125 0.515625 C-1.98121094 0.34546875 -1.00539062 0.1753125 0 0 Z " fill="#C29430" transform="translate(248,10)"/>
<path d="M0 0 C1.32 0 2.64 0 4 0 C5.07107424 17.93057608 -2.76898086 33.01537937 -14.3737793 46.14086914 C-23.56798551 56.15125625 -34.08988405 62.71963786 -46 69 C-47.13115234 69.62068359 -47.13115234 69.62068359 -48.28515625 70.25390625 C-50 71 -50 71 -53 71 C-53 71.66 -53 72.32 -53 73 C-56.96 73.99 -56.96 73.99 -61 75 C-60 71 -60 71 -57.1484375 69.2109375 C-55.89573639 68.58856243 -54.63747339 67.97730534 -53.375 67.375 C-31.5228132 56.31330139 -13.00084808 41.65984538 -4.8828125 17.703125 C-3.036491 11.85419412 -1.40464097 5.9697241 0 0 Z " fill="#F6E9A4" transform="translate(130,145)"/>
<path d="M0 0 C3.11510972 0.69224661 3.93540686 1.11708887 5.8125 3.625 C6.15307617 6.0769043 6.15307617 6.0769043 6.10546875 8.94921875 C6.09580078 9.97724609 6.08613281 11.00527344 6.07617188 12.06445312 C6.05103516 13.13630859 6.02589844 14.20816406 6 15.3125 C5.97969727 16.93768555 5.97969727 16.93768555 5.95898438 18.59570312 C5.92360643 21.27263405 5.87424189 23.94856838 5.8125 26.625 C6.86566406 26.46128906 7.91882813 26.29757813 9.00390625 26.12890625 C11.9990007 25.73263221 14.74344289 25.51624528 17.75 25.5625 C18.52214844 25.57152344 19.29429688 25.58054688 20.08984375 25.58984375 C20.65832031 25.60144531 21.22679688 25.61304688 21.8125 25.625 C21.8125 26.615 21.8125 27.605 21.8125 28.625 C21.049375 28.686875 20.28625 28.74875 19.5 28.8125 C16.69518269 29.41584616 16.69518269 29.41584616 14.9375 31.625 C13.36458427 35.81944195 14.02843554 39.28902907 14.8125 43.625 C15.95525391 43.71974609 15.95525391 43.71974609 17.12109375 43.81640625 C27.46067833 45.04269905 32.69431002 49.41147712 39.8125 56.625 C39.3175 57.615 39.3175 57.615 38.8125 58.625 C38.4 58.16609375 37.9875 57.7071875 37.5625 57.234375 C32.95458508 52.3384654 28.38403503 47.98923612 21.41015625 47.43359375 C19.01674299 47.56160451 17.06573976 47.80647617 14.8125 48.625 C12.82166823 51.0501788 12.82166823 51.0501788 11.8125 53.625 C11.1525 53.625 10.4925 53.625 9.8125 53.625 C4.91711596 41.73621018 3.35166518 30.11584441 3.125 17.3125 C3.09171029 15.97457858 3.05721063 14.6366867 3.02148438 13.29882812 C2.9399982 10.07430362 2.87053043 6.85001715 2.8125 3.625 C1.8225 3.295 0.8325 2.965 -0.1875 2.625 C-4.17015091 5.11415682 -7.62447266 8.70507583 -10.1875 12.625 C-9.90982955 8.04343764 -7.85868343 5.31162427 -4.875 2.01953125 C-3.1875 0.625 -3.1875 0.625 0 0 Z " fill="#AD7F24" transform="translate(10.1875,174.375)"/>
<path d="M0 0 C1 2 1 2 0.22265625 4.35546875 C-0.35162109 5.75732422 -0.35162109 5.75732422 -0.9375 7.1875 C-3.1453189 13.00396083 -3.93291589 17.95963784 -2 24 C-2.66 24 -3.32 24 -4 24 C-2.15451681 29.73071096 -0.55519783 33.06036945 4 37 C3.505 37.99 3.505 37.99 3 39 C-2.43351871 35.17183909 -4.89416461 31.30511889 -7 25 C-7 24.34 -7 23.68 -7 23 C-7.66 23 -8.32 23 -9 23 C-9.26554687 23.57105469 -9.53109375 24.14210938 -9.8046875 24.73046875 C-11.46737489 27.88740134 -13.61919731 30.63849977 -15.7578125 33.48828125 C-17.44634289 36.90251093 -17.37773319 39.2226681 -17 43 C-13.69376301 52.2383278 -8.37918284 60.47746364 -1 67 C-0.34 67 0.32 67 1 67 C1.33 65.35 1.66 63.7 2 62 C2.33 62 2.66 62 3 62 C3 64.31 3 66.62 3 69 C-0.6456719 69.53612822 -1.84765748 69.11028856 -4.88671875 66.91015625 C-8.17667533 64.04564257 -10.41512457 60.8201149 -12.6875 57.125 C-13.25307617 56.24521484 -13.25307617 56.24521484 -13.83007812 55.34765625 C-16.33353785 51.37183016 -18.24485496 47.3572172 -20 43 C-20.556875 43.825 -21.11375 44.65 -21.6875 45.5 C-24 48 -24 48 -26.75 48.3125 C-27.4925 48.209375 -28.235 48.10625 -29 48 C-33.66061195 40.03107801 -32.07711874 31.35271781 -29.8125 22.6875 C-28.35408408 18.30503235 -26.10371069 14.73336182 -23.40234375 11.0078125 C-21.91695813 9.0649882 -21.91695813 9.0649882 -21.203125 6.80859375 C-20 5 -20 5 -17.20703125 4.27734375 C-15.52673828 4.10912109 -15.52673828 4.10912109 -13.8125 3.9375 C-8.62536788 3.29917221 -4.63589818 2.37185488 0 0 Z M-20.12109375 8.921875 C-21.64534333 11.21814709 -22.8488168 13.49760531 -24 16 C-24.38414062 16.67675781 -24.76828125 17.35351562 -25.1640625 18.05078125 C-29.39529357 25.64568881 -31.06226395 34.34567307 -30 43 C-29.34 43.99 -28.68 44.98 -28 46 C-25.6132529 46.04113842 -25.6132529 46.04113842 -23 45 C-21.4935998 42.66974021 -20.33948957 40.55767449 -19.1875 38.0625 C-16.27324926 32.14191775 -13.09320752 27.19579565 -8.6640625 22.24609375 C-5.66095418 18.19260247 -4.79876962 13.50778228 -3.875 8.625 C-3.70742187 7.75101563 -3.53984375 6.87703125 -3.3671875 5.9765625 C-3.24601562 5.32429687 -3.12484375 4.67203125 -3 4 C-8.73322427 4 -15.81320018 5.01859022 -20.12109375 8.921875 Z " fill="#B48629" transform="translate(252,6)"/>
<path d="M0 0 C2.7912715 0 4.48217171 0.49301629 6.4921875 2.4609375 C11.3165832 8.58517038 15.47820105 15.75106567 16.4375 23.5625 C16.09766776 26.23261046 15.61850546 28.66155025 15.01171875 31.26953125 C13.61312054 38.17428269 13.54222944 45.1013635 13.375 52.125 C13.33671699 53.4765848 13.29765973 54.82814791 13.2578125 56.1796875 C13.16428946 59.45299391 13.07853802 62.72630557 13 66 C11.02 66 9.04 66 7 66 C6.31270083 36.94310588 6.31270083 36.94310588 11.1015625 27.92578125 C12.67065852 24.56245805 11.98359381 21.43114119 11 18 C8.06073615 11.52617836 4.27661023 5.66021942 0 0 Z " fill="#F1E298" transform="translate(121,32)"/>
<path d="M0 0 C2.50777727 3.76166591 2.2934072 5.52554027 2 10 C1.44938665 12.71509341 0.74975688 15.32899112 0 18 C0.99 18 1.98 18 3 18 C3 17.01 3 16.02 3 15 C3.66 15 4.32 15 5 15 C4.56857074 20.39286575 3.47889394 23.80486318 0 28 C-0.99 28 -1.98 28 -3 28 C-3 26.68 -3 25.36 -3 24 C-3.969375 24.495 -4.93875 24.99 -5.9375 25.5 C-10.28728381 27.39857367 -14.33030204 27.28589988 -19 27 C-18.54738642 25.56068883 -18.08767021 24.12361001 -17.625 22.6875 C-17.36976562 21.88699219 -17.11453125 21.08648437 -16.8515625 20.26171875 C-16 18 -16 18 -14 15 C-13.55888435 13.11845117 -13.1890733 11.21937362 -12.875 9.3125 C-12.62363281 7.82169922 -12.62363281 7.82169922 -12.3671875 6.30078125 C-12.24601562 5.54152344 -12.12484375 4.78226563 -12 4 C-11.67 4 -11.34 4 -11 4 C-10.54427083 6.01822917 -10.08854167 8.03645833 -9.6328125 10.0546875 C-9.09525572 12.20719964 -9.09525572 12.20719964 -7 14 C-5.35 13.67 -3.7 13.34 -2 13 C-1.34 8.71 -0.68 4.42 0 0 Z " fill="#C3952A" transform="translate(90,148)"/>
<path d="M0 0 C4.22343187 2.88971654 5.89645634 4.98389244 7 10 C7.50993921 14.89541646 6.67002973 17.86576043 4 22 C1.29026532 25.29684386 -1.21058821 27.62626209 -5.46875 28.515625 C-11.1064749 28.75336039 -14.66524806 27.81871004 -19 24 C-21.375 21.25 -21.375 21.25 -23 19 C-22.67 18.34 -22.34 17.68 -22 17 C-21.92328238 15.60487587 -21.8629694 14.20882009 -21.8125 12.8125 C-21.34990507 8.12588251 -19.67674999 5.65690138 -16.5703125 2.21484375 C-15 1 -15 1 -12 1 C-11.6875 3.125 -11.6875 3.125 -12 6 C-13.5954349 8.05727132 -15.26526288 10.05874656 -17 12 C-18.27852287 14.21587348 -18.27852287 14.21587348 -19 16 C-16.18060883 13.79020692 -13.46941056 11.59937954 -11 9 C-11.62759865 11.92879371 -12.58622659 14.36095629 -14 17 C-13.01 16.67 -12.02 16.34 -11 16 C-11 18.97 -11 21.94 -11 25 C-3.49831382 23.86427609 -3.49831382 23.86427609 2 19 C3.59143106 15.81713789 3.40059867 12.46517847 3 9 C1.57378316 6.28873616 1.57378316 6.28873616 0 4 C0 2.68 0 1.36 0 0 Z " fill="#DCAB42" transform="translate(140,113)"/>
<path d="M0 0 C1.92578125 0.05078125 1.92578125 0.05078125 4.3125 0.3125 C5.48232422 0.43044922 5.48232422 0.43044922 6.67578125 0.55078125 C9 1 9 1 13 3 C13 12.9 13 22.8 13 33 C11.7269932 30.4539864 10.45754019 27.90677281 9.1953125 25.35546875 C8.50526398 23.96611819 7.81515817 22.57679609 7.125 21.1875 C6.78597656 20.50107422 6.44695312 19.81464844 6.09765625 19.10742188 C4.41556507 15.72725006 2.68281411 12.41911882 0.76171875 9.16796875 C-0.98855024 6.02058926 -1.51708501 4.51617804 -1 1 C-0.67 0.67 -0.34 0.34 0 0 Z " fill="#B58726" transform="translate(243,162)"/>
<path d="M0 0 C4.455 0.99 4.455 0.99 9 2 C9 3.32 9 4.64 9 6 C8.360625 6.28875 7.72125 6.5775 7.0625 6.875 C4.84793921 7.82823451 4.84793921 7.82823451 4 10 C3.47040292 15.14479578 3.47040292 15.14479578 6 19.4375 C6.66 19.953125 7.32 20.46875 8 21 C7.34 22.32 6.68 23.64 6 25 C3.69 25 1.38 25 -1 25 C-1.33 22.36 -1.66 19.72 -2 17 C-2.66 17 -3.32 17 -4 17 C-3.835 16.360625 -3.67 15.72125 -3.5 15.0625 C-2.96073333 13.19173179 -2.96073333 13.19173179 -3 12 C-3.928125 12.99 -3.928125 12.99 -4.875 14 C-7 16 -7 16 -9 16 C-9 13.36 -9 10.72 -9 8 C-8.34 8.66 -7.68 9.32 -7 10 C-3.60582235 6.87378374 -1.3937282 4.43458973 0 0 Z " fill="#FAEDA8" transform="translate(130,113)"/>
<path d="M0 0 C6.625 -0.25 6.625 -0.25 10 2 C10.1875 5.125 10.1875 5.125 10 8 C8.68 7.67 7.36 7.34 6 7 C5.6596875 7.45890625 5.319375 7.9178125 4.96875 8.390625 C1.17824326 13.18924523 -2.39549279 15.66185129 -8 18 C-8.78375 18.4125 -9.5675 18.825 -10.375 19.25 C-16.61888403 21.03396687 -23.03680319 20.51081971 -29 18 C-29 17.67 -29 17.34 -29 17 C-28.34515625 16.98582031 -27.6903125 16.97164062 -27.015625 16.95703125 C-16.01055533 16.38190755 -6.82825134 12.82825134 1 5 C1.33 4.34 1.66 3.68 2 3 C1.01 3 0.02 3 -1 3 C-0.67 2.01 -0.34 1.02 0 0 Z " fill="#5B3E0F" transform="translate(169,137)"/>
<path d="M0 0 C1.16402344 0.25716797 1.16402344 0.25716797 2.3515625 0.51953125 C4.375 1.1875 4.375 1.1875 6.375 3.1875 C6.5 6.3125 6.5 6.3125 6.375 9.1875 C5.735625 8.6925 5.09625 8.1975 4.4375 7.6875 C0.3025857 5.66223585 -3.10021487 5.36116513 -7.625 6.1875 C-12.61960708 9.22343764 -15.13256033 13.23816217 -18.26171875 18.09765625 C-19.8620578 20.55089805 -21.2431243 22.45522676 -23.625 24.1875 C-27.375 24.9375 -27.375 24.9375 -30.625 25.1875 C-28.55474478 23.11724478 -26.49837893 21.0745677 -24.3125 19.125 C-21.81969925 16.40031081 -20.1006611 13.82693837 -18.1875 10.6875 C-15.1830136 5.8411328 -12.34641757 1.50502051 -6.73828125 -0.48046875 C-4.2460662 -0.87203673 -2.45194461 -0.56993361 0 0 Z " fill="#B48528" transform="translate(249.625,201.8125)"/>
<path d="M0 0 C2.97 0.495 2.97 0.495 6 1 C6.57793108 9.90977087 5.51345516 17.72927526 2 26 C1.34 26.33 0.68 26.66 0 27 C0 26.34 0 25.68 0 25 C-1.65 25.66 -3.3 26.32 -5 27 C-4.2350912 21.13033144 -3.11897555 15.36133228 -1.9375 9.5625 C-1.75123047 8.64017578 -1.56496094 7.71785156 -1.37304688 6.76757812 C-0.9171263 4.51135577 -0.4594036 2.25551526 0 0 Z " fill="#583A13" transform="translate(123,140)"/>
<path d="M0 0 C7.30930931 7.30930931 7.30930931 7.30930931 7.375 11.75 C7.22661755 20.39042405 5.20413084 29.06115888 0 36 C0 24.12 0 12.24 0 0 Z " fill="#DBB147" transform="translate(115,134)"/>
<path d="M0 0 C1.6875 1.4375 1.6875 1.4375 2.4375 5.0625 C2.56125 6.733125 2.56125 6.733125 2.6875 8.4375 C2.0275 7.1175 1.3675 5.7975 0.6875 4.4375 C-2.41766943 5.33636483 -3.94700024 5.81963137 -5.625 8.65625 C-6.53724411 12.34669209 -5.63311796 13.89913594 -3.9375 17.25 C-3.45539062 18.22582031 -2.97328125 19.20164063 -2.4765625 20.20703125 C-2.09242187 20.94308594 -1.70828125 21.67914063 -1.3125 22.4375 C-4.2825 22.4375 -7.2525 22.4375 -10.3125 22.4375 C-10.3125 15.1775 -10.3125 7.9175 -10.3125 0.4375 C-6.9410809 -1.24820955 -3.59866721 -0.87535148 0 0 Z " fill="#A87A23" transform="translate(10.3125,233.5625)"/>
<path d="M0 0 C4.845955 2.06056634 6.93545555 5.25073175 9 10 C10.35240446 16.54240107 8.46370891 22.41771185 5 28 C2.5 30.4375 2.5 30.4375 0 32 C-0.598125 32.4125 -1.19625 32.825 -1.8125 33.25 C-5.22044188 34.41843722 -8.41133398 34.1196222 -12 34 C-12 33.01 -12 32.02 -12 31 C-10.2365625 30.938125 -10.2365625 30.938125 -8.4375 30.875 C-3.31718467 30.2383711 -0.36020447 27.78719178 3 24 C5.65960058 20.01059913 5.11833331 15.97012027 4.55078125 11.375 C3.80110192 8.14234021 2.3606094 6.28907578 0 4 C-0.66 3.34 -1.32 2.68 -2 2 C-1.34 2 -0.68 2 0 2 C0 1.34 0 0.68 0 0 Z " fill="#694610" transform="translate(141,110)"/>
<path d="M0 0 C3.5625 1.5 3.5625 1.5 6 3 C6 3.66 6 4.32 6 5 C5.31035156 5.00257812 4.62070313 5.00515625 3.91015625 5.0078125 C-2.76989634 5.28271178 -6.71295917 6.5076191 -11.9296875 10.72265625 C-14.45551012 12.28104115 -16.08448555 12.23872679 -19 12 C-19.66 10.35 -20.32 8.7 -21 7 C-20.319375 6.773125 -19.63875 6.54625 -18.9375 6.3125 C-16.35460316 5.15843971 -14.88491435 4.13170108 -12.75 2.375 C-8.64661179 -0.64666713 -4.94723858 -0.86038932 0 0 Z " fill="#5B3D10" transform="translate(175,103)"/>
<path d="M0 0 C0.33 0.99 0.66 1.98 1 3 C1.99 3 2.98 3 4 3 C4 2.01 4 1.02 4 0 C4.66 0 5.32 0 6 0 C5.56857074 5.39286575 4.47889394 8.80486318 1 13 C0.01 13 -0.98 13 -2 13 C-2 11.68 -2 10.36 -2 9 C-5.63 8.67 -9.26 8.34 -13 8 C-12.67 6.02 -12.34 4.04 -12 2 C-8.18243176 0.62567543 -4.92744671 1.32024961 -1 2 C-0.67 1.34 -0.34 0.68 0 0 Z " fill="#C89B2D" transform="translate(89,163)"/>
<path d="M0 0 C8.35267246 -0.70860424 14.44401289 1.74686644 22.0625 5 C23.21427734 5.47695312 24.36605469 5.95390625 25.55273438 6.4453125 C28.37468373 7.61624584 31.1897584 8.80130364 34 10 C30.40300151 11.1989995 28.71453976 10.68787773 25 10 C23.72125 9.938125 22.4425 9.87625 21.125 9.8125 C13.75609839 9.07687815 6.81435461 5.73410301 0 3 C0 2.01 0 1.02 0 0 Z " fill="#F5D455" transform="translate(38,132)"/>
<path d="M0 0 C0.66 0 1.32 0 2 0 C1.91231752 1.5843317 1.80412671 3.16753567 1.6875 4.75 C1.62949219 5.63171875 1.57148437 6.5134375 1.51171875 7.421875 C0.93061239 10.34958642 -0.13950407 11.71314042 -2 14 C-2.71433121 16.64934822 -2.71433121 16.64934822 -3 19 C-3.99 19 -4.98 19 -6 19 C-6.33 19.33 -6.66 19.66 -7 20 C-9.33297433 20.04092937 -11.66705225 20.04241723 -14 20 C-14 19.67 -14 19.34 -14 19 C-11.69 18.34 -9.38 17.68 -7 17 C-7 16.34 -7 15.68 -7 15 C-10.96 13.68 -14.92 12.36 -19 11 C-19 10.34 -19 9.68 -19 9 C-14.05 9.33 -9.1 9.66 -4 10 C-3.67 9.01 -3.34 8.02 -3 7 C-3.61875 6.896875 -4.2375 6.79375 -4.875 6.6875 C-7 6 -7 6 -9 3 C-6.36 3 -3.72 3 -1 3 C-0.67 2.01 -0.34 1.02 0 0 Z " fill="#67430B" transform="translate(76,153)"/>
<path d="M0 0 C0.99 0 1.98 0 3 0 C2.67 1.65 2.34 3.3 2 5 C2.66 5.33 3.32 5.66 4 6 C4.33 4.68 4.66 3.36 5 2 C5.25523438 2.88751953 5.25523438 2.88751953 5.515625 3.79296875 C7.33574635 9.72772612 9.58027656 13.58027656 14 18 C13.34 18 12.68 18 12 18 C12 20.31 12 22.62 12 25 C11.67 25 11.34 25 11 25 C10.7525 23.9275 10.505 22.855 10.25 21.75 C9.1677051 17.5714203 9.1677051 17.5714203 5 14 C5 25.55 5 37.1 5 49 C4.34 49 3.68 49 3 49 C2.98018066 47.90010742 2.96036133 46.80021484 2.93994141 45.66699219 C2.86380099 41.58163778 2.77509664 37.49663562 2.68261719 33.41162109 C2.64436229 31.6444393 2.6095033 29.87718056 2.578125 28.10986328 C2.53239848 25.56775437 2.47441711 23.02617352 2.4140625 20.484375 C2.40251129 19.69569031 2.39096008 18.90700562 2.37905884 18.09442139 C2.21653512 11.97430367 2.21653512 11.97430367 -1 7 C-1.125 4 -1.125 4 -1 1 C-0.67 0.67 -0.34 0.34 0 0 Z " fill="#68440F" transform="translate(111,122)"/>
<path d="M0 0 C-0.2661968 3.81548744 -0.74254273 5.68369535 -3.1875 8.6875 C-6.37562192 11.30884469 -9.71780666 14 -14 14 C-14.55908515 10.19822098 -14.05018324 9.06969895 -11.75 5.875 C-5.67785235 -0.47315436 -5.67785235 -0.47315436 0 0 Z " fill="#F6D14D" transform="translate(132,16)"/>
<path d="M0 0 C4.22343187 2.88971654 5.89645634 4.98389244 7 10 C7.50993921 14.89541646 6.67002973 17.86576043 4 22 C1.21059907 25.39377113 -1.22075999 27.75101014 -5.6796875 28.375 C-8.1491569 28.375 -10.54597179 28.26663486 -13 28 C-10.78153728 25.78153728 -9.58632309 25.46125403 -6.625 24.625 C-2.82068058 23.42009497 -0.50238469 22.23224689 2 19 C3.59143106 15.81713789 3.40059867 12.46517847 3 9 C1.57378316 6.28873616 1.57378316 6.28873616 0 4 C0 2.68 0 1.36 0 0 Z " fill="#D7A331" transform="translate(140,113)"/>
<path d="M0 0 C5.81422706 0.19380757 9.44949791 1.11542505 14 5 C14.875 7.25 14.875 7.25 15 9 C10.69624593 9.20017461 7.93964705 8.63351219 4 7 C1.67402489 6.6186926 -0.65912158 6.27539746 -3 6 C-2.42655063 3.13275314 -2.1385485 2.1385485 0 0 Z " fill="#F4D053" transform="translate(60,147)"/>
<path d="M0 0 C2.21003321 1.809168 3.39080714 3.58621071 5 6 C4.14277344 6.02578125 3.28554687 6.0515625 2.40234375 6.078125 C-4.52461279 6.42173953 -9.32993797 6.91228086 -15 11 C-14.49697411 6.59852343 -12.97554199 4.24604581 -10 1 C-6.76907619 -0.6154619 -3.47907992 -0.73838981 0 0 Z " fill="#715012" transform="translate(175,118)"/>
<path d="M0 0 C2.7912715 0 4.48217171 0.49301629 6.4921875 2.4609375 C11.42648397 8.72468173 15.54943487 15.94491381 16.4375 23.9375 C16.02669824 26.81311235 15.35092287 28.48804301 14 31 C13.77957031 29.78376953 13.77957031 29.78376953 13.5546875 28.54296875 C11.31093203 17.46603801 6.76439996 8.9528823 0 0 Z " fill="#F7E896" transform="translate(121,32)"/>
<path d="M0 0 C6.45512034 -0.56131481 11.15439723 1.36536213 17 4 C16.67 5.32 16.34 6.64 16 8 C10.6496441 7.42978066 5.32212148 6.79265639 0 6 C0 4.02 0 2.04 0 0 Z " fill="#EAC95F" transform="translate(56,156)"/>
<path d="M0 0 C0.66 0 1.32 0 2 0 C2 14.52 2 29.04 2 44 C0.35 43.67 -1.3 43.34 -3 43 C-3.33 42.34 -3.66 41.68 -4 41 C-2.68 41.33 -1.36 41.66 0 42 C0 28.14 0 14.28 0 0 Z " fill="#C59D45" transform="translate(110,130)"/>
<path d="M0 0 C1.65 0.33 3.3 0.66 5 1 C6.32985075 7.16567164 6.32985075 7.16567164 4.9375 10.6875 C1.02317112 15.35944092 -2.95983557 17.42474624 -9 18 C-9 16.68 -9 15.36 -9 14 C-8.45730469 13.76925781 -7.91460937 13.53851563 -7.35546875 13.30078125 C-2.82517297 11.23561939 -0.03219982 9.78164664 2 5 C2.69579454 2.80869466 2.69579454 2.80869466 3 1 C2.01 0.67 1.02 0.34 0 0 Z " fill="#C19531" transform="translate(129,15)"/>
<path d="M0 0 C0.33 0 0.66 0 1 0 C1.268125 1.093125 1.53625 2.18625 1.8125 3.3125 C2.87663739 6.61692663 3.34654664 7.94960422 6 10 C5.34 11.32 4.68 12.64 4 14 C1.69 14 -0.62 14 -3 14 C-3.33 11.36 -3.66 8.72 -4 6 C-4.66 6 -5.32 6 -6 6 C-5.625 4.0625 -5.625 4.0625 -5 2 C-4.34 1.67 -3.68 1.34 -3 1 C-2.67 1.66 -2.34 2.32 -2 3 C-1.34 2.01 -0.68 1.02 0 0 Z " fill="#F9E68D" transform="translate(132,124)"/>
<path d="M0 0 C2.27734375 0.171875 2.27734375 0.171875 4.9375 0.75 C6.25041016 1.02070313 6.25041016 1.02070313 7.58984375 1.296875 C10 2 10 2 13 4 C12.34 5.32 11.68 6.64 11 8 C1.88 8.304 1.88 8.304 -1 6 C-1.875 4 -1.875 4 -2 2 C-1.34 1.34 -0.68 0.68 0 0 Z " fill="#DBB347" transform="translate(57,164)"/>
<path d="M0 0 C0.33 0 0.66 0 1 0 C1.33 3.96 1.66 7.92 2 12 C3.32 11.67 4.64 11.34 6 11 C6.86883706 12.57533086 7.71959068 14.16064509 8.5625 15.75 C9.03816406 16.63171875 9.51382813 17.5134375 10.00390625 18.421875 C11.07998186 21.20701188 11.06528748 22.26980214 10 25 C9.01 25 8.02 25 7 25 C6.34 24.01 5.68 23.02 5 22 C4.505 21.360625 4.01 20.72125 3.5 20.0625 C0.19030082 15.51166363 -0.23040822 12.44204366 -0.125 6.75 C-0.10695313 5.48671875 -0.08890625 4.2234375 -0.0703125 2.921875 C-0.04710938 1.95765625 -0.02390625 0.9934375 0 0 Z " fill="#654514" transform="translate(85,125)"/>
<path d="M0 0 C0.66 0 1.32 0 2 0 C6.36573636 5.65451462 7.54551838 10.96901929 7.9375 17.9375 C7.98253662 18.69538818 8.02757324 19.45327637 8.07397461 20.23413086 C8.14340329 22.15499109 8.0813196 24.07960643 8 26 C7.34 26.66 6.68 27.32 6 28 C4.68 28 3.36 28 2 28 C1.67 26.02 1.34 24.04 1 22 C-0.3921875 22.061875 -0.3921875 22.061875 -1.8125 22.125 C-5 22 -5 22 -8 20 C-7.67 19.34 -7.34 18.68 -7 18 C-5.51515588 18.39595843 -4.0371169 18.81750706 -2.5625 19.25 C-1.73878906 19.48203125 -0.91507812 19.7140625 -0.06640625 19.953125 C2 21 2 21 2.78515625 23.109375 C2.89150391 24.04523438 2.89150391 24.04523438 3 25 C3.99 25 4.98 25 6 25 C5.84144531 24.46890625 5.68289063 23.9378125 5.51953125 23.390625 C4.89003685 20.49400416 4.81029746 17.71117307 4.6875 14.75 C4.28776838 8.84063416 3.05961604 5.03356187 0 0 Z " fill="#B98C29" transform="translate(8,80)"/>
<path d="M0 0 C0.66 0 1.32 0 2 0 C2 0.66 2 1.32 2 2 C2.66 2.66 3.32 3.32 4 4 C2.39967863 4.84069415 0.79458829 5.67231505 -0.8125 6.5 C-2.15248047 7.19609375 -2.15248047 7.19609375 -3.51953125 7.90625 C-6 9 -6 9 -9 9 C-9 9.66 -9 10.32 -9 11 C-11.64 11.66 -14.28 12.32 -17 13 C-16 9 -16 9 -12.65625 6.89453125 C-11.27782849 6.18672907 -9.89201363 5.4931819 -8.5 4.8125 C-3.9558242 2.81037941 -3.9558242 2.81037941 0 0 Z " fill="#F3E39A" transform="translate(86,207)"/>
<path d="M0 0 C0.9674997 2.68749916 0.95923086 4.27543193 0.53393555 7.14868164 C-0.0203705 11.14693396 -0.11752317 15.03428766 -0.10546875 19.05859375 C-0.11891992 20.59441513 -0.13394218 22.13022342 -0.15039062 23.66601562 C-0.17320439 26.05361066 -0.18748852 28.4397027 -0.17504883 30.82739258 C-0.11365849 46.93323001 -0.11365849 46.93323001 -5.6184082 52.67211914 C-6.30229614 53.32942017 -6.30229614 53.32942017 -7 54 C-7.33 54.66 -7.66 55.32 -8 56 C-8.66 55.67 -9.32 55.34 -10 55 C-9.02223933 53.51990357 -8.0427506 52.04094856 -7.0625 50.5625 C-6.51722656 49.73878906 -5.97195312 48.91507813 -5.41015625 48.06640625 C-4 46 -4 46 -3 45 C-2.92427776 43.09123153 -2.91695605 41.17969063 -2.9375 39.26953125 C-2.94604004 38.079646 -2.95458008 36.88976074 -2.96337891 35.66381836 C-2.97546387 34.3928833 -2.98754883 33.12194824 -3 31.8125 C-3.11985174 4.67977761 -3.11985174 4.67977761 0 0 Z " fill="#D3AB4A" transform="translate(122,64)"/>
<path d="M0 0 C0.33 7.92 0.66 15.84 1 24 C-0.32 24 -1.64 24 -3 24 C-3 16.41 -3 8.82 -3 1 C-1 0 -1 0 0 0 Z " fill="#FDF3B6" transform="translate(132,73)"/>
<path d="M0 0 C-5.34821933 4.72633336 -9.30922 7.2823024 -16.6875 7.3125 C-17.64011719 7.32925781 -18.59273437 7.34601563 -19.57421875 7.36328125 C-20.77498047 7.18345703 -20.77498047 7.18345703 -22 7 C-22.66 6.01 -23.32 5.02 -24 4 C-23.32195312 3.97421875 -22.64390625 3.9484375 -21.9453125 3.921875 C-15.69288325 3.54084053 -10.76756317 2.41330084 -5.09375 -0.2578125 C-3 -1 -3 -1 0 0 Z " fill="#F4E492" transform="translate(169,153)"/>
<path d="M0 0 C1.32 0 2.64 0 4 0 C5.11445498 2.22890995 5.16480286 3.53055106 5.1875 6 C5.20167969 6.70125 5.21585938 7.4025 5.23046875 8.125 C5 10 5 10 3 12 C-0.53571429 11.46428571 -0.53571429 11.46428571 -2 10 C-2.35897436 3.53846154 -2.35897436 3.53846154 0 0 Z " fill="#674819" transform="translate(135,120)"/>
<path d="M0 0 C-2.25120067 3.00160089 -3.57067249 4.75504038 -7.34765625 5.40234375 C-12.25074208 5.46890148 -16.43422316 4.92243236 -21 3 C-21 2.67 -21 2.34 -21 2 C-20.27554688 1.95101562 -19.55109375 1.90203125 -18.8046875 1.8515625 C-12.90651637 1.39543727 -5.42232917 -2.08551122 0 0 Z " fill="#55370B" transform="translate(161,152)"/>
<path d="M0 0 C0.33 0.66 0.66 1.32 1 2 C0.566875 2.804375 0.566875 2.804375 0.125 3.625 C-1.48935582 7.03308451 -1.62538129 10.2538129 -2 14 C-7.03776802 13.35149611 -11.46741051 11.90862829 -16.1875 10.125 C-17.25387695 9.74021484 -17.25387695 9.74021484 -18.34179688 9.34765625 C-24.69885783 6.96749608 -24.69885783 6.96749608 -27 4 C-21.59491957 4.61303628 -17.07560955 6.44380693 -12.125 8.5625 C-10.949375 9.0565332 -10.949375 9.0565332 -9.75 9.56054688 C-7.83091244 10.36796786 -5.9151135 11.18319769 -4 12 C-3.86722656 10.90558594 -3.73445313 9.81117188 -3.59765625 8.68359375 C-3.00472104 5.02909768 -2.09088494 2.99996535 0 0 Z " fill="#C39C41" transform="translate(75,122)"/>
<path d="M0 0 C4.30764815 1.56641751 8.06171464 3.68336156 12 6 C11.34 7.32 10.68 8.64 10 10 C6.84669446 9.39305845 4.81111133 8.3583335 2.25 6.4375 C1.63640625 5.98246094 1.0228125 5.52742187 0.390625 5.05859375 C-0.06828125 4.70925781 -0.5271875 4.35992187 -1 4 C-0.67 2.68 -0.34 1.36 0 0 Z " fill="#C1932D" transform="translate(97,173)"/>
<path d="M0 0 C1.22589844 0.01353516 1.22589844 0.01353516 2.4765625 0.02734375 C3.41628906 0.04474609 3.41628906 0.04474609 4.375 0.0625 C4.375 0.3925 4.375 0.7225 4.375 1.0625 C3.17875 1.248125 1.9825 1.43375 0.75 1.625 C-3.50186021 2.72006169 -5.81824409 4.4675595 -8.50390625 7.91015625 C-10.50883745 11.75934473 -10.60779199 15.78630995 -10.625 20.0625 C-11.285 19.7325 -11.945 19.4025 -12.625 19.0625 C-13.54001926 9.69202503 -13.54001926 9.69202503 -11.359375 5.80859375 C-7.77845021 1.6453341 -5.57465901 -0.07963799 0 0 Z " fill="#EED994" transform="translate(129.625,110.9375)"/>
<path d="M0 0 C7.86009363 -0.77059741 13.84310895 1.9667243 21 5 C22.15628906 5.47695312 23.31257813 5.95390625 24.50390625 6.4453125 C27.34136886 7.61781771 30.17284057 8.80291447 33 10 C29.55039938 11.14986687 28.89860886 10.84899294 25.62109375 9.6015625 C24.78255859 9.28703125 23.94402344 8.9725 23.08007812 8.6484375 C22.20802734 8.31070313 21.33597656 7.97296875 20.4375 7.625 C19.56158203 7.295 18.68566406 6.965 17.78320312 6.625 C11.46056548 4.23028274 11.46056548 4.23028274 9 3 C7.46331135 2.77532169 5.92031946 2.59203195 4.375 2.4375 C3.55773438 2.35371094 2.74046875 2.26992187 1.8984375 2.18359375 C1.27195313 2.12300781 0.64546875 2.06242188 0 2 C0 1.34 0 0.68 0 0 Z " fill="#F1E49B" transform="translate(39,132)"/>
<path d="M0 0 C5.53455721 2.2948164 9.00415551 5.68496083 13 10 C12.34 11.32 11.68 12.64 11 14 C10.45730469 13.44570312 9.91460937 12.89140625 9.35546875 12.3203125 C8.64003906 11.59585938 7.92460938 10.87140625 7.1875 10.125 C6.47980469 9.40570313 5.77210937 8.68640625 5.04296875 7.9453125 C2.95600806 5.84641063 2.95600806 5.84641063 0 4 C0 2.68 0 1.36 0 0 Z " fill="#AD7F26" transform="translate(32,229)"/>
<path d="M0 0 C0.66 0 1.32 0 2 0 C1.67 3.3 1.34 6.6 1 10 C-7.66666667 5.66666667 -7.66666667 5.66666667 -9 3 C-6.36 3 -3.72 3 -1 3 C-0.67 2.01 -0.34 1.02 0 0 Z " fill="#59390D" transform="translate(76,153)"/>
<path d="M0 0 C4.02628409 -0.20472631 7.09381948 -0.28920655 10.9375 0.9375 C14.11014204 4.11014204 13.89998262 7.66288271 14 12 C13.34 12 12.68 12 12 12 C12 11.34 12 10.68 12 10 C11.01 9.67 10.02 9.34 9 9 C9.99 9 10.98 9 12 9 C12 7.68 12 6.36 12 5 C9.03 4.67 6.06 4.34 3 4 C2.34 5.32 1.68 6.64 1 8 C1 6.68 1 5.36 1 4 C0.34 3.67 -0.32 3.34 -1 3 C-0.34 2.67 0.32 2.34 1 2 C0.67 1.34 0.34 0.68 0 0 Z " fill="#DFC267" transform="translate(127,110)"/>
<path d="M0 0 C5.32744085 1.52542775 10.56129833 3.1747884 15.75 5.125 C19.4951277 6.51680632 23.003645 7.56796162 27 8 C27 8.33 27 8.66 27 9 C20.5077207 9.69560135 15.58724748 8.43463364 9.5625 6.1875 C8.49708984 5.79667236 8.49708984 5.79667236 7.41015625 5.39794922 C3.808874 3.99292972 2.19473629 3.29210444 0 0 Z " fill="#B98D27" transform="translate(38,135)"/>
<path d="M0 0 C4.81484562 2.0473382 6.99684064 5.24551332 9 10 C9.38267536 13.05667851 9.31869167 15.94055995 9 19 C8.67 19 8.34 19 8 19 C8 16.36 8 13.72 8 11 C7.34 11 6.68 11 6 11 C5.67 11.66 5.34 12.32 5 13 C4.38125 11.39125 4.38125 11.39125 3.75 9.75 C2.36260851 6.47734926 0.72000092 4.34482838 -2 2 C-1.34 2 -0.68 2 0 2 C0 1.34 0 0.68 0 0 Z " fill="#6D4A11" transform="translate(141,110)"/>
<path d="M0 0 C0.66 0 1.32 0 2 0 C2.474377 7.28695785 2.28670939 11.97181491 -2 18 C-2.66 18 -3.32 18 -4 18 C-3.55434408 15.40034044 -3.04981346 13.11519362 -2 10.6875 C-0.67401455 7.12391411 -0.38448147 3.78073448 0 0 Z " fill="#603E0A" transform="translate(147,121)"/>
<path d="M0 0 C2.72869407 0.03287583 5.2966618 0.56397771 8 1 C8 1.66 8 2.32 8 3 C4.28026121 5.84450614 1.62609198 6.3227506 -3 6 C-2.42655063 3.13275314 -2.1385485 2.1385485 0 0 Z " fill="#E2C04E" transform="translate(60,147)"/>
<path d="M0 0 C0.33 0.66 0.66 1.32 1 2 C0.20335937 2.35191406 -0.59328125 2.70382813 -1.4140625 3.06640625 C-8.23573868 6.24487581 -12.45883349 9.02478091 -17 15 C-17.66 15 -18.32 15 -19 15 C-17.60906555 9.74535873 -14.3964108 6.91232294 -10 4 C-6.73294841 2.45445158 -3.41837407 1.16926276 0 0 Z " fill="#B58524" transform="translate(255,106)"/>
<path d="M0 0 C4.94841651 0.39587332 4.94841651 0.39587332 7.125 2.25 C7.875 5.875 7.875 5.875 8.125 9.25 C7.465 7.93 6.805 6.61 6.125 5.25 C4.145 5.58 2.165 5.91 0.125 6.25 C0.455 5.26 0.785 4.27 1.125 3.25 C-1.845 2.755 -1.845 2.755 -4.875 2.25 C-2.875 0.25 -2.875 0.25 0 0 Z " fill="#A87A21" transform="translate(4.875,232.75)"/>
<path d="M0 0 C1.67542976 0.28604898 3.34385343 0.61781233 5 1 C5 2.32 5 3.64 5 5 C3 7 3 7 0.375 7.125 C-0.40875 7.08375 -1.1925 7.0425 -2 7 C-1.125 1.125 -1.125 1.125 0 0 Z " fill="#F0C440" transform="translate(78,164)"/>
<path d="M0 0 C-2.52940943 2.02352755 -5.02974735 4.02075397 -7.6875 5.875 C-10.43045252 8.39555096 -11.10748312 10.42993246 -12 14 C-12.66 14 -13.32 14 -14 14 C-14.55908515 10.19822098 -14.05018324 9.06969895 -11.75 5.875 C-5.67785235 -0.47315436 -5.67785235 -0.47315436 0 0 Z " fill="#ECDE94" transform="translate(132,16)"/>
<path d="M0 0 C0.67578125 1.765625 0.67578125 1.765625 1 4 C-0.14453125 5.921875 -0.14453125 5.921875 -1.8125 7.75 C-2.62654297 8.67039062 -2.62654297 8.67039062 -3.45703125 9.609375 C-5 11 -5 11 -7 11 C-7 8.36 -7 5.72 -7 3 C-6.34 3.66 -5.68 4.32 -5 5 C-3.35 3.35 -1.7 1.7 0 0 Z " fill="#E1C99F" transform="translate(128,118)"/>
<path d="M0 0 C0.3888868 2.64443027 0.39540909 4.38826202 -1.078125 6.66796875 C-2.31914474 8.16931734 -3.65582649 9.59025705 -5 11 C-5.33 11 -5.66 11 -6 11 C-6.36601307 3.5577342 -6.36601307 3.5577342 -4.6875 1 C-3 0 -3 0 0 0 Z " fill="#BD9142" transform="translate(128,114)"/>
<path d="M0 0 C0.66 0.33 1.32 0.66 2 1 C1.34 2.32 0.68 3.64 0 5 C-8.57142857 5.28571429 -8.57142857 5.28571429 -12 3 C-8.00439392 0.16977903 -4.57262677 1.23789554 0 2 C0 1.34 0 0.68 0 0 Z " fill="#B98B23" transform="translate(68,167)"/>
<path d="M0 0 C0.66 0 1.32 0 2 0 C3.32 2.97 4.64 5.94 6 9 C3.69 9 1.38 9 -1 9 C-0.67 6.03 -0.34 3.06 0 0 Z " fill="#B6872A" transform="translate(1,247)"/>
<path d="M0 0 C7.75 0.875 7.75 0.875 10 2 C10 2.66 10 3.32 10 4 C6.04 4 2.08 4 -2 4 C-1.34 2.68 -0.68 1.36 0 0 Z " fill="#51350C" transform="translate(168,119)"/>
<path d="M0 0 C4.54805635 -0.17835515 7.8794254 0.00214565 12 2 C12 2.99 12 3.98 12 5 C6.06 4.01 6.06 4.01 0 3 C0 2.01 0 1.02 0 0 Z " fill="#624110" transform="translate(129,107)"/>
<path d="M0 0 C2.31 0.66 4.62 1.32 7 2 C7 4.31 7 6.62 7 9 C3.64564078 7.61198929 1.88709697 6.11371 0 3 C0 2.01 0 1.02 0 0 Z " fill="#C0942E" transform="translate(249,34)"/>
<path d="M0 0 C1.98 0 3.96 0 6 0 C6 3 6 3 4.6875 4.4375 C4.130625 4.953125 3.57375 5.46875 3 6 C2.01 7.32 1.02 8.64 0 10 C0 6.7 0 3.4 0 0 Z " fill="#B38629" transform="translate(0,235)"/>
<path d="M0 0 C0.33 0.99 0.66 1.98 1 3 C0.34 3.66 -0.32 4.32 -1 5 C-1.16687448 7.58354218 -1.16687448 7.58354218 -1 10 C-2.98 10.99 -2.98 10.99 -5 12 C-5.66 10.35 -6.32 8.7 -7 7 C-6.21625 6.401875 -5.4325 5.80375 -4.625 5.1875 C-1.85425677 3.08914751 -1.85425677 3.08914751 0 0 Z " fill="#C8A86E" transform="translate(128,122)"/>
<path d="M0 0 C1.09054688 0.09087891 1.09054688 0.09087891 2.203125 0.18359375 C3.71132812 0.30927734 3.71132812 0.30927734 5.25 0.4375 C8.65625 0.72135417 12.0625 1.00520833 15.46875 1.2890625 C17.09296875 1.42441406 17.09296875 1.42441406 18.75 1.5625 C21.375 1.78125 21.375 1.78125 24 2 C24 2.33 24 2.66 24 3 C20.93726169 3.05410136 17.87548548 3.09372225 14.8125 3.125 C13.51602539 3.15013672 13.51602539 3.15013672 12.19335938 3.17578125 C7.67791897 3.21038233 4.09918517 3.15567916 0 1 C0 0.67 0 0.34 0 0 Z " fill="#C9A041" transform="translate(81,246)"/>
<path d="M0 0 C0.33 0 0.66 0 1 0 C1 2.31 1 4.62 1 7 C1.66 7 2.32 7 3 7 C1.52307692 11.67692308 1.52307692 11.67692308 -1.125 13.3125 C-2.053125 13.6528125 -2.053125 13.6528125 -3 14 C-3.33 12.35 -3.66 10.7 -4 9 C-3.01 8.34 -2.02 7.68 -1 7 C-0.26393501 3.43230448 -0.26393501 3.43230448 0 0 Z " fill="#E5C451" transform="translate(140,123)"/>
<path d="M0 0 C2.25 0.0625 2.25 0.0625 5 1 C6.80624384 3.13159211 8.15034876 5.33518475 9 8 C8.6015625 10.23046875 8.6015625 10.23046875 8 12 C5.33333333 8 2.66666667 4 0 0 Z " fill="#F4E99C" transform="translate(121,32)"/>
<path d="M0 0 C0 1.32 0 2.64 0 4 C-4.29 3.34 -8.58 2.68 -13 2 C-13 1.67 -13 1.34 -13 1 C-8.59085217 -0.10228696 -4.51617599 -0.07654536 0 0 Z " fill="#654E29" transform="translate(53,130)"/>
<path d="M0 0 C0.33 0.66 0.66 1.32 1 2 C1.66 2 2.32 2 3 2 C3 4.64 3 7.28 3 10 C1.35 9.67 -0.3 9.34 -2 9 C-1.34 7.35 -0.68 5.7 0 4 C-0.66 3.67 -1.32 3.34 -2 3 C-1.34 3 -0.68 3 0 3 C0 2.01 0 1.02 0 0 Z " fill="#90702E" transform="translate(114,118)"/>
<path d="M0 0 C4.62 0 9.24 0 14 0 C11.13725236 2.86274764 7.89611889 2.9615008 4 3 C1.5 2.0625 1.5 2.0625 0 1 C0 0.67 0 0.34 0 0 Z " fill="#C59832" transform="translate(228,0)"/>
<path d="M0 0 C0.33 0 0.66 0 1 0 C1 2.97 1 5.94 1 9 C-1.475 8.01 -1.475 8.01 -4 7 C-2.79618552 4.50638429 -1.54571278 2.31856917 0 0 Z " fill="#9D7230" transform="translate(128,129)"/>
<path d="M0 0 C2.97 0 5.94 0 9 0 C9 0.99 9 1.98 9 3 C6.03 3 3.06 3 0 3 C0 2.01 0 1.02 0 0 Z " fill="#ECD484" transform="translate(129,104)"/>
<path d="M0 0 C0.66 0 1.32 0 2 0 C3.3671875 1.64453125 3.3671875 1.64453125 4.875 3.8125 C6.53023185 6.19135415 7.86141748 7.89667958 10.1953125 9.63671875 C11.08863281 10.31154297 11.08863281 10.31154297 12 11 C12 11.66 12 12.32 12 13 C8.64065168 11.56875447 6.68207173 9.82271696 4.3125 7.0625 C3.71050781 6.37285156 3.10851562 5.68320313 2.48828125 4.97265625 C1 3 1 3 0 0 Z " fill="#A87921" transform="translate(24,238)"/>
<path d="M0 0 C2.475 0.99 2.475 0.99 5 2 C4.67 3.32 4.34 4.64 4 6 C1.03 5.67 -1.94 5.34 -5 5 C-5 4.67 -5 4.34 -5 4 C-3.02 4 -1.04 4 1 4 C0.67 2.68 0.34 1.36 0 0 Z " fill="#BB8F2D" transform="translate(68,158)"/>
<path d="M0 0 C5.75 0.75 5.75 0.75 8 3 C7.67 3.66 7.34 4.32 7 5 C3.37 4.34 -0.26 3.68 -4 3 C-2.68 2.67 -1.36 2.34 0 2 C0 1.34 0 0.68 0 0 Z " fill="#765216" transform="translate(61,153)"/>
<path d="M0 0 C0.33 0.66 0.66 1.32 1 2 C0.71125 2.53625 0.4225 3.0725 0.125 3.625 C-1.48935582 7.03308451 -1.62538129 10.2538129 -2 14 C-3.32 14 -4.64 14 -6 14 C-6 13.34 -6 12.68 -6 12 C-5.34 12 -4.68 12 -4 12 C-3.896875 10.948125 -3.79375 9.89625 -3.6875 8.8125 C-3.02266585 5.12569246 -2.11433704 3.03361401 0 0 Z " fill="#D0A847" transform="translate(75,122)"/>
<path d="M0 0 C0 0.66 0 1.32 0 2 C-0.99 2 -1.98 2 -3 2 C-3.144375 2.886875 -3.28875 3.77375 -3.4375 4.6875 C-3.91019978 7.47117646 -4.43070185 10.23483757 -5 13 C-5.33 13 -5.66 13 -6 13 C-6.08121924 11.39667209 -6.13929134 9.79215974 -6.1875 8.1875 C-6.22230469 7.29417969 -6.25710937 6.40085938 -6.29296875 5.48046875 C-6 3 -6 3 -4.67578125 1.17578125 C-3 0 -3 0 0 0 Z " fill="#F6EAA8" transform="translate(85,125)"/>
<path d="M0 0 C0.33 0 0.66 0 1 0 C1.48828125 1.98567708 1.9765625 3.97135417 2.46484375 5.95703125 C2.91010705 7.65683202 3.44433985 9.33301954 4 11 C2.35 11 0.7 11 -1 11 C-0.67 7.37 -0.34 3.74 0 0 Z " fill="#BB8E28" transform="translate(78,152)"/>
<path d="M0 0 C2.97 0 5.94 0 9 0 C9 0.33 9 0.66 9 1 C11.31 1.33 13.62 1.66 16 2 C16 2.33 16 2.66 16 3 C10.26157749 3.20413361 5.39460953 3.27141454 0 1 C0 0.67 0 0.34 0 0 Z " fill="#755924" transform="translate(140,154)"/>
<path d="M0 0 C0.33 0.66 0.66 1.32 1 2 C1.62648437 1.97679687 2.25296875 1.95359375 2.8984375 1.9296875 C3.71570312 1.91164062 4.53296875 1.89359375 5.375 1.875 C6.18710937 1.85179687 6.99921875 1.82859375 7.8359375 1.8046875 C10 2 10 2 12 4 C7.28400182 4.92470553 4.32734391 5.22923777 0 3 C0 2.01 0 1.02 0 0 Z " fill="#F1CF5B" transform="translate(38,132)"/>
<path d="M0 0 C2.5 1.5625 2.5 1.5625 5 4 C5.3125 7.75 5.3125 7.75 5 11 C0 4.40909091 0 4.40909091 0 0 Z " fill="#E3B13B" transform="translate(140,113)"/>
<path d="M0 0 C0.99 1.32 1.98 2.64 3 4 C2.67 4.33 2.34 4.66 2 5 C1.76321284 7.69235776 1.57801975 10.36498156 1.4375 13.0625 C1.39431641 13.82111328 1.35113281 14.57972656 1.30664062 15.36132812 C1.20026367 17.24065438 1.09960066 19.12030244 1 21 C0.67 21 0.34 21 0 21 C0 14.07 0 7.14 0 0 Z " fill="#C49C46" transform="translate(115,134)"/>
<path d="M0 0 C2.46751239 3.70126859 2.30721156 5.62223532 2 10 C0.984375 12.22265625 0.984375 12.22265625 0 14 C-0.19627391 12.41773035 -0.38165538 10.83410729 -0.5625 9.25 C-0.66691406 8.36828125 -0.77132812 7.4865625 -0.87890625 6.578125 C-0.99456676 4.11567549 -0.73638695 2.33461936 0 0 Z " fill="#FCEA88" transform="translate(135,49)"/>
<path d="M0 0 C0.66 0 1.32 0 2 0 C1.01 2.97 0.02 5.94 -1 9 C-1.99 8.34 -2.98 7.68 -4 7 C-2.92598892 4.08482708 -2.22189824 2.22189824 0 0 Z " fill="#FEF19E" transform="translate(128,166)"/>
<path d="M0 0 C2.6875 0.3125 2.6875 0.3125 5 1 C4.67 1.99 4.34 2.98 4 4 C1 5 1 5 -1.1875 4.0625 C-1.785625 3.711875 -2.38375 3.36125 -3 3 C-1.8125 1.4375 -1.8125 1.4375 0 0 Z " fill="#4F360D" transform="translate(165,147)"/>
<path d="M0 0 C3.625 0.375 3.625 0.375 7 1 C7 1.99 7 2.98 7 4 C2.545 3.01 2.545 3.01 -2 2 C-1.34 1.34 -0.68 0.68 0 0 Z " fill="#F3CC43" transform="translate(47,136)"/>
<path d="M0 0 C0 3 0 3 -1.53125 4.82421875 C-2.1809375 5.43910156 -2.830625 6.05398437 -3.5 6.6875 C-4.1496875 7.31011719 -4.799375 7.93273437 -5.46875 8.57421875 C-5.9740625 9.04472656 -6.479375 9.51523438 -7 10 C-7.33 9.34 -7.66 8.68 -8 8 C-3.375 2.25 -3.375 2.25 0 0 Z " fill="#66420D" transform="translate(67,210)"/>
<path d="M0 0 C0.33 0 0.66 0 1 0 C1 2.64 1 5.28 1 8 C1.66 8 2.32 8 3 8 C2.25 12.75 2.25 12.75 0 15 C0 10.05 0 5.1 0 0 Z " fill="#D1A951" transform="translate(115,155)"/>
<path d="M0 0 C2 1.3125 2 1.3125 4 3 C4 3.99 4 4.98 4 6 C1.125 6.125 1.125 6.125 -2 6 C-2.66 5.34 -3.32 4.68 -4 4 C-2.68 3.34 -1.36 2.68 0 2 C0 1.34 0 0.68 0 0 Z " fill="#C09630" transform="translate(71,150)"/>
<path d="M0 0 C0.66 0.33 1.32 0.66 2 1 C-1.33333333 4.33333333 -4.66666667 7.66666667 -8 11 C-7.91433603 8.087425 -7.42089045 6.43201976 -5.375 4.33203125 C-3.61608625 2.83908228 -1.83686981 1.39563738 0 0 Z " fill="#F5D659" transform="translate(128,18)"/>
<path d="M0 0 C-0.33 0.99 -0.66 1.98 -1 3 C-4.0625 4.1875 -4.0625 4.1875 -7 5 C-6.625 3.0625 -6.625 3.0625 -6 1 C-4 0 -4 0 0 0 Z " fill="#EFE3AA" transform="translate(76,215)"/>
<path d="M0 0 C-0.33 0.66 -0.66 1.32 -1 2 C-4.3 2 -7.6 2 -11 2 C-7.72338241 -1.27661759 -4.29690696 -1.43230232 0 0 Z " fill="#C9932F" transform="translate(138,139)"/>
<path d="M0 0 C2 2 2 2 2.125 4.625 C2.08375 5.40875 2.0425 6.1925 2 7 C0.02 7.99 0.02 7.99 -2 9 C-1.125 2.25 -1.125 2.25 0 0 Z " fill="#E4D89C" transform="translate(132,60)"/>
<path d="M0 0 C1.9375 0.625 1.9375 0.625 4 2 C4.75 5.125 4.75 5.125 5 8 C2.69 6.02 0.38 4.04 -2 2 C-1.34 1.34 -0.68 0.68 0 0 Z " fill="#C09333" transform="translate(39,7)"/>
<path d="M0 0 C4.50802601 1.25805377 7.4912812 2.90407165 11 6 C5.64951939 5.62671065 3.49087093 4.0042343 0 0 Z " fill="#ECC963" transform="translate(98,174)"/>
<path d="M0 0 C0.99 0.33 1.98 0.66 3 1 C1.375 3 1.375 3 -1 5 C-4.25 5.25 -4.25 5.25 -7 5 C-2.25 1.125 -2.25 1.125 0 0 Z " fill="#F8EDA6" transform="translate(166,152)"/>
<path d="M0 0 C2.20914 3.31371 2.22481553 4.3446021 2.125 8.1875 C2.10695312 9.08855469 2.08890625 9.98960937 2.0703125 10.91796875 C2.03550781 11.94857422 2.03550781 11.94857422 2 13 C1.67 13 1.34 13 1 13 C0.67 10.36 0.34 7.72 0 5 C-0.66 5 -1.32 5 -2 5 C-1.125 1.125 -1.125 1.125 0 0 Z " fill="#DDC68F" transform="translate(128,125)"/>
<path d="M0 0 C-1.49097658 3.7952131 -3.75700849 5.61042731 -7 8 C-7 5 -7 5 -4.625 2.3125 C-2 0 -2 0 0 0 Z " fill="#6A4713" transform="translate(124,11)"/>
<path d="M0 0 C2.31 0 4.62 0 7 0 C6.67 1.32 6.34 2.64 6 4 C4.125 3.6875 4.125 3.6875 2 3 C1.34 2.01 0.68 1.02 0 0 Z " fill="#65410B" transform="translate(67,156)"/>
<path d="M0 0 C2.33944736 0.28730055 4.6739143 0.61936779 7 1 C7 1.33 7 1.66 7 2 C6.030625 2.12375 5.06125 2.2475 4.0625 2.375 C3.051875 2.58125 2.04125 2.7875 1 3 C0.67 3.66 0.34 4.32 0 5 C-0.66 5 -1.32 5 -2 5 C-1.125 1.125 -1.125 1.125 0 0 Z " fill="#EBD789" transform="translate(60,147)"/>
<path d="M0 0 C0.66 1.32 1.32 2.64 2 4 C0.02 4.99 -1.96 5.98 -4 7 C-4 5.68 -4 4.36 -4 3 C-2 1.25 -2 1.25 0 0 Z " fill="#734D0F" transform="translate(142,136)"/>
<path d="M0 0 C0.99 0 1.98 0 3 0 C3 1.65 3 3.3 3 5 C2.01 5.33 1.02 5.66 0 6 C-0.38218767 4.34385343 -0.71395102 2.67542976 -1 1 C-0.67 0.67 -0.34 0.34 0 0 Z " fill="#A68243" transform="translate(125,114)"/>
<path d="M0 0 C1.98 0 3.96 0 6 0 C4.35 1.65 2.7 3.3 1 5 C0.34 4.67 -0.32 4.34 -1 4 C-0.67 2.68 -0.34 1.36 0 0 Z " fill="#CBA039" transform="translate(21,0)"/>
<path d="M0 0 C0.99 0 1.98 0 3 0 C2.40072174 3.35595828 1.15377564 5.37801226 -1 8 C-1.04241723 5.66705225 -1.04092937 3.33297433 -1 1 C-0.67 0.67 -0.34 0.34 0 0 Z " fill="#FAEFB9" transform="translate(130,113)"/>
<path d="M0 0 C0.33 1.32 0.66 2.64 1 4 C1.99 3.67 2.98 3.34 4 3 C3.6875 4.9375 3.6875 4.9375 3 7 C2.01 7.33 1.02 7.66 0 8 C0 5.36 0 2.72 0 0 Z " fill="#F2DB99" transform="translate(121,121)"/>
<path d="M0 0 C-2.97 1.65 -5.94 3.3 -9 5 C-9 4.01 -9 3.02 -9 2 C-3.375 -1.125 -3.375 -1.125 0 0 Z " fill="#BF9333" transform="translate(19,18)"/>
<path d="M0 0 C2.7839183 1.39195915 2.97898997 3.15575779 4 6 C2.0625 5.6875 2.0625 5.6875 0 5 C-0.33 4.01 -0.66 3.02 -1 2 C-0.67 1.34 -0.34 0.68 0 0 Z " fill="#CD9D37" transform="translate(97,173)"/>
<path d="M0 0 C0.66 0.99 1.32 1.98 2 3 C1.34 4.32 0.68 5.64 0 7 C-0.66 7 -1.32 7 -2 7 C-1.125 2.25 -1.125 2.25 0 0 Z " fill="#694A17" transform="translate(117,113)"/>
</svg>
